# xmcd CD database file
#
# Track frame offsets:
#	187
#	15012
#	32192
#	49244
#	64952
#	91674
#	107814
#	124759
#	146847
#	174424
#
# Disc length: 2561 seconds
#
# Revision: 6
# Processed by: cddbd v1.5.2PL0 Copyright (c) Steve Scherf et al.
# Submitted via: CDex 1.51
#
DISCID=8009ff0a
DTITLE=FLOTSAM AND JETSAM - DRIFT
DYEAR=1995
DGENRE=Heavy Metal
TTITLE0=Me
TTITLE1=Empty Air
TTITLE2=Pick A Window
TTITLE3=12 Year Old With A Gun
TTITLE4=Missing
TTITLE5=Blindside
TTITLE6=Remember
TTITLE7=Destructive Signs
TTITLE8=Smoked Out
TTITLE9=Poet's Tell
EXTD=YEAR: 1995
EXTT0=
EXTT1=
EXTT2=
EXTT3=
EXTT4=
EXTT5=
EXTT6=
EXTT7=
EXTT8=
EXTT9=
PLAYORDER=
